<?xml version="1.0" standalone="no"?>
<!DOCTYPE svg PUBLIC "-//W3C//DTD SVG 20010904//EN"
 "http://www.w3.org/TR/2001/REC-SVG-20010904/DTD/svg10.dtd">
<svg version="1.0" xmlns="http://www.w3.org/2000/svg"
 width="512.000000pt" height="512.000000pt" viewBox="0 0 512.000000 512.000000"
 preserveAspectRatio="xMidYMid meet">
<metadata>
Created by potrace 1.11, written by Peter Selinger 2001-2013
</metadata>
<g transform="translate(0.000000,512.000000) scale(0.100000,-0.100000)"
fill="#000000" stroke="none">
<path d="M3900 3900 c0 -31 -66 -97 -134 -134 -214 -119 -591 -185 -1046 -186
-233 0 -374 9 -544 36 -318 49 -553 143 -616 247 l-20 32 0 -90 c0 -49 3 -181
7 -292 l6 -202 51 -17 c201 -66 432 -249 562 -446 212 -322 261 -696 135
-1030 -66 -178 -140 -301 -247 -417 -31 -34 -54 -64 -51 -67 3 -4 37 -13 74
-21 152 -32 338 -54 516 -60 l187 -6 0 -43 c0 -56 11 -84 50 -122 150 -150
598 -252 1110 -252 564 0 1056 126 1155 294 l25 43 0 589 c0 580 -1 588 -19
548 -120 -264 -1156 -399 -1860 -243 -121 27 -281 81 -340 115 -195 112 -187
255 21 360 204 103 566 174 884 174 l104 0 0 605 c0 333 -2 605 -5 605 -3 0
-5 -9 -5 -20z"/>
<path d="M1132 3044 c-29 -20 -52 -66 -52 -104 0 -20 -6 -33 -17 -37 -104 -34
-186 -105 -234 -200 -32 -64 -34 -74 -34 -173 0 -97 2 -110 31 -170 69 -146
187 -227 359 -244 80 -9 137 -43 164 -99 27 -56 27 -102 -1 -157 -56 -111
-190 -130 -279 -41 -29 28 -39 49 -48 96 -15 77 -26 98 -61 118 -55 33 -126
12 -156 -45 -21 -40 -15 -120 16 -201 30 -81 120 -175 200 -211 l60 -27 0 -51
c0 -90 41 -142 114 -142 70 0 116 60 116 148 0 45 0 45 58 73 73 34 150 112
187 188 27 55 30 69 30 170 0 99 -3 116 -27 168 -62 132 -185 219 -337 238
-99 12 -130 26 -168 76 -24 32 -28 45 -28 104 0 75 16 106 75 146 94 65 230
16 258 -92 6 -22 16 -59 22 -83 28 -107 179 -109 211 -3 26 88 -36 250 -127
330 -26 22 -70 52 -99 66 -50 23 -53 27 -59 70 -10 64 -53 105 -110 105 -23 0
-52 -7 -64 -16z"/>
</g>
</svg>
